<?xml version="1.0" encoding="UTF-8"?><svg id="a" xmlns="http://www.w3.org/2000/svg" viewBox="0 0 1920 1080"><defs><style>.c,.d{fill:#fff;}.e{fill:#0f0a3c;}.d{isolation:isolate;opacity:.04;}</style></defs><g id="b"><rect class="e" y="-2.88" width="1920" height="1083.95"/><g><circle class="d" cx="369.04" cy="1007.12" r="12.23"/><circle class="c" cx="369.04" cy="1007.12" r="3.44"/><circle class="d" cx="112.65" cy="535.84" r="12.23"/><circle class="c" cx="112.65" cy="535.84" r="3.44"/><circle class="d" cx="494.36" cy="39.96" r="12.23"/><circle class="c" cx="494.36" cy="39.96" r="3.44"/><circle class="c" cx="182.2" cy="894.04" r="1.53"/><circle class="c" cx="213.77" cy="931.61" r="1.53"/><circle class="c" cx="167.72" cy="943.2" r="1.53"/><circle class="c" cx="551.85" cy="1036.19" r="1.15"/><circle class="c" cx="364.88" cy="254.47" r=".76"/><circle class="c" cx="228.49" cy="219.99" r="1.53"/><circle class="c" cx="188.83" cy="282.25" r="1.53"/><circle class="c" cx="1629.75" cy="347.71" r="1.15"/><circle class="c" cx="1748.92" cy="292.49" r="1.15"/><circle class="c" cx="1784.01" cy="307.23" r=".76"/><circle class="c" cx="1564.66" cy="136.88" r="1.15"/><circle class="c" cx="1818.05" cy="671.08" r="1.53"/><circle class="c" cx="1561.2" cy="805.13" r="1.53"/><circle class="c" cx="1743.63" cy="869.26" r="1.15"/><circle class="c" cx="1656.36" cy="971" r=".76"/><circle class="c" cx="1460.26" cy="842.42" r=".76"/><circle class="c" cx="1686.25" cy="986.76" r="1.15"/><circle class="d" cx="1433.48" cy="243" r="12.23"/><circle class="c" cx="1433.48" cy="243" r="3.44"/><circle class="c" cx="1744.78" cy="920.91" r="3.44"/><circle class="c" cx="1115.92" cy="970.24" r=".76"/><circle class="c" cx="976.54" cy="84.3" r="1"/><circle class="c" cx="1173.68" cy="1007.12" r="1.5"/><circle class="c" cx="1085.89" cy="1050.74" r="1.53"/></g></g></svg>