<svg width="18" height="19" viewBox="0 0 18 19" fill="none" xmlns="http://www.w3.org/2000/svg">
<path d="M9 17.375C6.91142 17.375 4.90838 16.5453 3.43153 15.0685C1.95468 13.5916 1.125 11.5886 1.125 9.5C1.125 7.41142 1.95468 5.40838 3.43153 3.93153C4.90838 2.45468 6.91142 1.625 9 1.625C11.0886 1.625 13.0916 2.45468 14.5685 3.93153C16.0453 5.40838 16.875 7.41142 16.875 9.5C16.875 11.5886 16.0453 13.5916 14.5685 15.0685C13.0916 16.5453 11.0886 17.375 9 17.375ZM9 18.5C11.3869 18.5 13.6761 17.5518 15.364 15.864C17.0518 14.1761 18 11.8869 18 9.5C18 7.11305 17.0518 4.82387 15.364 3.13604C13.6761 1.44821 11.3869 0.5 9 0.5C6.61305 0.5 4.32387 1.44821 2.63604 3.13604C0.948212 4.82387 0 7.11305 0 9.5C0 11.8869 0.948212 14.1761 2.63604 15.864C4.32387 17.5518 6.61305 18.5 9 18.5Z" fill="#F6583E"/>
<path d="M5.22678 5.72678C5.27903 5.67439 5.3411 5.63283 5.40944 5.60448C5.47778 5.57612 5.55104 5.56152 5.62503 5.56152C5.69902 5.56152 5.77228 5.57612 5.84062 5.60448C5.90895 5.63283 5.97103 5.67439 6.02328 5.72678L9.00003 8.70465L11.9768 5.72678C12.0291 5.67448 12.0912 5.63299 12.1595 5.60469C12.2278 5.57639 12.3011 5.56182 12.375 5.56182C12.449 5.56182 12.5222 5.57639 12.5906 5.60469C12.6589 5.63299 12.721 5.67448 12.7733 5.72678C12.8256 5.77908 12.8671 5.84117 12.8954 5.9095C12.9237 5.97783 12.9382 6.05107 12.9382 6.12503C12.9382 6.19899 12.9237 6.27223 12.8954 6.34056C12.8671 6.40889 12.8256 6.47098 12.7733 6.52328L9.7954 9.50003L12.7733 12.4768C12.8256 12.5291 12.8671 12.5912 12.8954 12.6595C12.9237 12.7278 12.9382 12.8011 12.9382 12.875C12.9382 12.949 12.9237 13.0222 12.8954 13.0906C12.8671 13.1589 12.8256 13.221 12.7733 13.2733C12.721 13.3256 12.6589 13.3671 12.5906 13.3954C12.5222 13.4237 12.449 13.4382 12.375 13.4382C12.3011 13.4382 12.2278 13.4237 12.1595 13.3954C12.0912 13.3671 12.0291 13.3256 11.9768 13.2733L9.00003 10.2954L6.02328 13.2733C5.97098 13.3256 5.90889 13.3671 5.84056 13.3954C5.77223 13.4237 5.69899 13.4382 5.62503 13.4382C5.55107 13.4382 5.47783 13.4237 5.4095 13.3954C5.34117 13.3671 5.27908 13.3256 5.22678 13.2733C5.17448 13.221 5.13299 13.1589 5.10469 13.0906C5.07639 13.0222 5.06182 12.949 5.06182 12.875C5.06182 12.8011 5.07639 12.7278 5.10469 12.6595C5.13299 12.5912 5.17448 12.5291 5.22678 12.4768L8.20465 9.50003L5.22678 6.52328C5.17439 6.47103 5.13283 6.40895 5.10448 6.34062C5.07612 6.27228 5.06152 6.19902 5.06152 6.12503C5.06152 6.05104 5.07612 5.97778 5.10448 5.90944C5.13283 5.8411 5.17439 5.77903 5.22678 5.72678Z" fill="#F6583E"/>
</svg>
