<svg width="19" height="19" viewBox="0 0 19 19" fill="none" xmlns="http://www.w3.org/2000/svg">
<path d="M9.1084 4.4375C9.1084 4.28832 9.04913 4.14524 8.94365 4.03975C8.83816 3.93426 8.69508 3.875 8.5459 3.875C8.39671 3.875 8.25364 3.93426 8.14815 4.03975C8.04266 4.14524 7.9834 4.28832 7.9834 4.4375V10.625C7.98343 10.7241 8.00967 10.8215 8.05945 10.9073C8.10924 10.993 8.18081 11.0641 8.2669 11.1132L12.2044 13.3632C12.3336 13.4331 12.485 13.4496 12.6263 13.4093C12.7675 13.369 12.8874 13.275 12.9602 13.1475C13.0331 13.0199 13.0532 12.869 13.0162 12.7268C12.9793 12.5847 12.8882 12.4626 12.7624 12.3868L9.1084 10.2987V4.4375Z" fill="white"/>
<path d="M9.1084 18.5C11.4953 18.5 13.7845 17.5518 15.4724 15.864C17.1602 14.1761 18.1084 11.8869 18.1084 9.5C18.1084 7.11305 17.1602 4.82387 15.4724 3.13604C13.7845 1.44821 11.4953 0.5 9.1084 0.5C6.72145 0.5 4.43226 1.44821 2.74444 3.13604C1.05661 4.82387 0.108398 7.11305 0.108398 9.5C0.108398 11.8869 1.05661 14.1761 2.74444 15.864C4.43226 17.5518 6.72145 18.5 9.1084 18.5ZM16.9834 9.5C16.9834 11.5886 16.1537 13.5916 14.6769 15.0685C13.2 16.5453 11.197 17.375 9.1084 17.375C7.01982 17.375 5.01678 16.5453 3.53993 15.0685C2.06308 13.5916 1.2334 11.5886 1.2334 9.5C1.2334 7.41142 2.06308 5.40838 3.53993 3.93153C5.01678 2.45468 7.01982 1.625 9.1084 1.625C11.197 1.625 13.2 2.45468 14.6769 3.93153C16.1537 5.40838 16.9834 7.41142 16.9834 9.5Z" fill="white"/>
</svg>
