<svg width="18" height="16" viewBox="0 0 18 16" fill="none" xmlns="http://www.w3.org/2000/svg">
<path d="M5.65425 15.3133C12.447 15.3133 16.1629 9.6849 16.1629 4.81253C16.1629 4.65503 16.1629 4.49528 16.1561 4.33778C16.8796 3.81408 17.5039 3.1657 18 2.42303C17.3242 2.72099 16.6081 2.91736 15.8749 3.00578C16.6472 2.54412 17.2257 1.81774 17.5028 0.961655C16.7771 1.39154 15.9829 1.69332 15.1549 1.85378C14.5982 1.26093 13.8616 0.868187 13.0591 0.736382C12.2566 0.604577 11.4331 0.741066 10.716 1.12471C9.99895 1.50835 9.42841 2.11774 9.09276 2.85847C8.7571 3.59921 8.67508 4.42995 8.85938 5.22203C7.39096 5.1484 5.95442 4.76693 4.64292 4.10237C3.33143 3.4378 2.17427 2.50498 1.2465 1.3644C0.775508 2.17787 0.63177 3.14011 0.844477 4.0557C1.05718 4.9713 1.61039 5.77163 2.39175 6.29415C1.80623 6.27426 1.23359 6.11703 0.72 5.83515V5.88578C0.72101 6.73795 1.01622 7.56363 1.55573 8.22326C2.09525 8.88289 2.84597 9.33601 3.681 9.50603C3.36405 9.59335 3.03663 9.63687 2.70788 9.6354C2.47611 9.63611 2.2448 9.61463 2.01712 9.57128C2.25313 10.3048 2.71268 10.9462 3.3314 11.4056C3.95012 11.8649 4.69703 12.1192 5.4675 12.1329C4.15862 13.1609 2.54183 13.7185 0.8775 13.7158C0.584236 13.717 0.291176 13.7001 0 13.6652C1.6892 14.7421 3.65096 15.3139 5.65425 15.3133Z" fill="white"/>
</svg>
