<svg width="101" height="101" viewBox="0 0 101 101" fill="none" xmlns="http://www.w3.org/2000/svg">
<mask id="mask0_107_665" style="mask-type:alpha" maskUnits="userSpaceOnUse" x="0" y="0" width="101" height="101">
<rect x="0.875" y="0.461914" width="100" height="100" fill="#93A4C5"/>
</mask>
<g mask="url(#mask0_107_665)">
<path d="M42.7708 51.1533C42.4276 51.0044 42.2316 50.9053 41.9767 50.7749C41.7398 50.6544 41.5103 50.5257 41.2808 50.3969C40.8292 50.1309 40.3873 49.8676 39.9629 49.5779C39.1065 49.0068 38.2933 48.3903 37.516 47.7368C35.9613 46.4299 34.5475 44.964 33.2933 43.3856C30.78 40.2276 28.8928 36.6264 27.6257 32.8549C26.3674 29.0703 25.6454 25.1964 25.4356 21.2269C25.2597 17.2664 25.6493 13.3591 26.2555 9.55124C26.863 5.73856 27.6848 2.01438 28.3876 -1.68997C29.0841 -5.39079 29.6812 -9.08721 29.7258 -12.7505C29.785 -16.4099 29.2373 -20.0455 27.7825 -23.3289C26.3522 -26.6264 24.0516 -29.5153 21.3152 -31.9568C18.5582 -34.3985 15.4665 -36.4796 12.0909 -37.9069C8.72273 -39.3426 5.0829 -40.1315 1.43015 -40.0802C-2.21872 -40.0433 -5.85378 -39.1694 -9.12805 -37.5362C-12.4142 -35.9165 -15.3177 -33.5421 -17.6578 -30.7009C-20.004 -27.8562 -21.7868 -24.5448 -22.9714 -21.0317C-23.5742 -19.3038 -23.9748 -17.4028 -24.6083 -15.5796C-25.2176 -13.7499 -25.8932 -11.9432 -26.7195 -10.1924C-28.3599 -6.69793 -30.4451 -3.35886 -33.1813 -0.546202C-34.5583 0.844818 -36.081 2.10361 -37.7651 3.15351C-38.6083 3.67298 -39.4881 4.13604 -40.4068 4.53174C-40.8721 4.72282 -41.3348 4.90424 -41.8201 5.05375C-42.3163 5.2055 -42.766 5.33862 -43.3607 5.43292L-43.5701 3.60649C-43.2274 3.56374 -42.7525 3.45287 -42.3382 3.33613C-41.9129 3.21715 -41.4882 3.06177 -41.0683 2.9051C-40.2296 2.57597 -39.4126 2.1737 -38.6275 1.71632C-37.0476 0.804156 -35.6078 -0.357789 -34.3028 -1.6542C-31.7021 -4.27023 -29.656 -7.4438 -28.106 -10.8331C-27.3123 -12.5202 -26.6641 -14.2825 -26.0835 -16.0629C-25.4704 -17.8294 -25.0926 -19.6641 -24.4826 -21.535C-23.2901 -25.2323 -21.4661 -28.7553 -19.0121 -31.8092C-16.5642 -34.8596 -13.4933 -37.4531 -9.97984 -39.2448C-6.477 -41.0549 -2.55353 -42.0586 1.39944 -42.1486C5.3576 -42.2579 9.31015 -41.4576 12.9527 -39.964C16.6075 -38.4774 19.9329 -36.3026 22.8929 -33.7495C25.8601 -31.1841 28.4597 -28.0391 30.1166 -24.3703C31.8028 -20.7143 32.4563 -16.6621 32.4448 -12.7363C32.4501 -8.79563 31.8783 -4.94233 31.2254 -1.17285C30.5664 2.60015 29.8054 6.30958 29.2689 10.0119C28.7337 13.7093 28.4143 17.4129 28.6611 21.0507C28.9254 24.6622 29.6754 28.3158 30.8917 31.7164C32.1102 35.1281 33.8807 38.3149 36.1571 41.0627C37.2898 42.4377 38.5627 43.695 39.9364 44.8085C40.6208 45.3646 41.3361 45.8824 42.0705 46.3483C42.4365 46.5861 42.8137 46.8011 43.1874 47.0099L43.7465 47.2995C43.9161 47.3812 44.1459 47.4894 44.2448 47.5262L42.7817 51.151L42.7708 51.1533Z" fill="url(#paint0_linear_107_665)"/>
<path d="M50.4589 62.22C50.3537 63.7913 50.1901 65.3677 49.8997 66.9152C53.5994 67.1715 57.4891 68.0326 58.1951 69.1069C58.9651 70.2709 57.02 75.3661 54.191 79.5877L58.2231 82.2935C59.9374 79.7402 65.2952 71.0456 62.2462 66.4292C61.0894 64.6802 58.7811 63.6165 56.3141 62.971C54.2927 62.4397 52.1599 62.1892 50.4614 62.0757C50.4581 62.1266 50.4561 62.1726 50.4528 62.2235L50.4589 62.22Z" fill="url(#paint1_linear_107_665)"/>
<path d="M60.8196 78.8637L56.1473 75.8622L53.4645 80.0402C53.1607 80.1503 52.8844 80.3506 52.6857 80.6287L50.9572 80.7815C50.5333 80.818 50.2201 81.1948 50.258 81.6139C50.2945 82.0378 50.6713 82.351 51.0903 82.3131L51.6151 82.2674L51.0571 83.1325C50.5676 83.8968 50.7858 84.9181 51.5501 85.4076L53.9918 86.9781C54.7562 87.4676 55.7774 87.2495 56.2669 86.4851L57.8374 84.0434C58.0255 83.747 58.1087 83.4173 58.0924 83.0919L60.8087 78.866L60.8196 78.8637Z" fill="url(#paint2_linear_107_665)"/>
<path d="M51.8509 43.6941L58.941 48.3167C63.4332 47.9726 70.7387 45.9184 73.0691 42.8624C74.2436 41.3188 75.4083 37.5519 69.9556 29.6774L65.3428 32.8672C66.5659 34.6391 67.6651 36.7764 68.1752 38.2538C68.4355 39.0016 67.9926 39.8044 67.2261 40.0183C65.7466 40.4397 63.3641 40.8314 60.8995 41.1235C59.621 41.2778 58.3302 40.9371 57.2766 40.1941C57.1292 40.0873 56.9905 39.9673 56.8689 39.8416C56.8664 39.8513 56.8638 39.8609 56.8612 39.8706C55.5868 37.6139 53.75 33.0324 55.0744 30.8715C57.2056 27.3998 62.7917 22.8765 64.7687 21.4288L61.0682 16.3842C60.7391 16.6273 52.9579 22.369 49.7457 27.5957C45.9148 33.8369 51.2382 42.6965 51.8583 43.6857L51.8509 43.6941Z" fill="url(#paint3_linear_107_665)"/>
<path d="M40.1816 34.4287L34.2708 48.1618C33.1002 50.985 33.5369 54.2234 35.4162 56.6371L36.7437 54.5806L44.7753 36.3325L40.1816 34.4287V34.4287Z" fill="url(#paint4_linear_107_665)"/>
<path d="M38.1257 38.7795L42.8847 40.9554L44.8265 36.7031C45.0982 36.5584 45.3226 36.3391 45.473 36.0481L47.0645 35.6722C47.4518 35.5792 47.6961 35.1892 47.6031 34.8019C47.5102 34.4147 47.1201 34.1704 46.7329 34.2633L46.247 34.3764L46.6488 33.4954C47.0027 32.7154 46.664 31.7965 45.884 31.4425L43.3986 30.3055C42.6186 29.9516 41.6997 30.2903 41.3457 31.0702L40.2087 33.5557C40.0715 33.8553 40.0431 34.1738 40.0975 34.4731L38.1305 38.7808L38.1257 38.7795Z" fill="url(#paint5_linear_107_665)"/>
<path d="M67.0567 37.4067L73.3535 34.1372L70.7522 29.1273L64.4554 32.3968L67.0567 37.4067Z" fill="url(#paint6_linear_107_665)"/>
<path d="M63.3835 30.9653L72.6126 26.1757C73.5526 27.9805 72.8481 30.2039 71.0385 31.1425L65.0799 34.2357L63.3835 30.9653Z" fill="url(#paint7_linear_107_665)"/>
<path d="M65.8911 21.1272L61.6748 15.4209L57.1347 18.7755L61.351 24.4818L65.8911 21.1272Z" fill="url(#paint8_linear_107_665)"/>
<path d="M67.263 20.3114L61.0823 11.9467C59.4489 13.1551 59.0996 15.4634 60.308 17.0968L64.3008 22.4993L67.263 20.3114V20.3114Z" fill="url(#paint9_linear_107_665)"/>
<path d="M35.3938 57.2345L49.9214 67.2227C50.6223 67.7046 51.5811 67.5271 52.0629 66.8262L63.7593 49.8142C64.2412 49.1133 64.0637 48.1545 63.3628 47.6727L48.8352 37.6844C48.1344 37.2025 47.1756 37.3801 46.6937 38.0809L34.9973 55.093C34.5155 55.7938 34.693 56.7526 35.3938 57.2345Z" fill="url(#paint10_linear_107_665)"/>
<path d="M36.9262 58.2863L48.3884 66.167C48.9732 66.5691 49.7732 66.4209 50.1753 65.8361L60.427 50.9254C60.8291 50.3406 60.681 49.5406 60.0962 49.1385L48.6339 41.2578C48.0491 40.8557 47.2491 41.0038 46.847 41.5886L36.5953 56.4994C36.1932 57.0842 36.3414 57.8842 36.9262 58.2863Z" fill="url(#paint11_linear_107_665)"/>
<path d="M30.2202 62.1188C33.444 57.4284 39.8606 56.2386 44.5559 59.4637C49.2463 62.6875 50.4361 69.1041 47.211 73.7994C43.9872 78.4898 37.5706 79.6796 32.8753 76.4545C28.1849 73.2307 26.9951 66.8141 30.2202 62.1188V62.1188Z" fill="url(#paint12_linear_107_665)"/>
<path d="M32.4541 63.6542C34.83 60.1963 39.5628 59.3214 43.0206 61.6973C46.4785 64.0733 47.3534 68.806 44.9775 72.2639C42.6016 75.7218 39.4292 74.3282 35.9726 71.9474C32.5147 69.5715 30.0734 67.1108 32.4541 63.6542Z" fill="url(#paint13_linear_107_665)"/>
<g style="mix-blend-mode:overlay" opacity="0.2">
<path d="M37.6183 61.3418C36.0455 61.6865 34.5954 62.5972 33.6168 64.0277C31.5641 67.0132 33.6667 69.1346 36.6535 71.1824C38.2661 72.2926 39.8113 73.1519 41.212 73.2373C39.9954 69.2775 38.8068 65.3097 37.6183 61.3418V61.3418Z" fill="white"/>
</g>
<path d="M45.3354 71.6817C47.2481 68.2912 46.2903 63.9452 43.0206 61.6974C42.7449 61.5096 42.4626 61.346 42.1703 61.2004C43.2151 64.7001 44.2674 68.1914 45.3341 71.6866L45.3354 71.6817Z" fill="url(#paint14_linear_107_665)"/>
<path d="M43.2939 53.6082L50.4679 58.5388C50.8707 58.8156 51.4217 58.7135 51.6985 58.3107L56.6291 51.1367C56.9059 50.7339 56.8038 50.1829 56.401 49.906L49.227 44.9755C48.8242 44.6986 48.2732 44.8008 47.9964 45.2036L43.0658 52.3776C42.789 52.7804 42.8911 53.3314 43.2939 53.6082Z" fill="url(#paint15_linear_107_665)"/>
<path d="M49.1756 44.9289L56.4666 49.9418C56.8383 50.1967 56.9304 50.7028 56.6769 51.0697C56.422 51.4414 55.9159 51.5335 55.549 51.2799L48.2532 46.2657C47.8815 46.0108 47.7893 45.5047 48.0429 45.1379C48.2978 44.7662 48.8039 44.674 49.1708 44.9276L49.1756 44.9289Z" fill="url(#paint16_linear_107_665)"/>
<path d="M45.2934 52.9223L50.1475 56.2584C50.4684 56.4789 50.9073 56.3976 51.1278 56.0767L53.4671 52.673C53.6876 52.3522 53.6063 51.9133 53.2854 51.6927L48.4313 48.3566C48.1104 48.136 47.6715 48.2174 47.451 48.5383L45.1117 51.9419C44.8912 52.2628 44.9725 52.7017 45.2934 52.9223Z" fill="url(#paint17_linear_107_665)"/>
<path d="M56.0981 56.8334L57.9852 58.1308C58.2468 58.3107 58.6048 58.2444 58.7847 57.9827L61.0085 54.7484C61.1884 54.4867 61.1221 54.1288 60.8604 53.9488L58.9734 52.6514C58.7117 52.4715 58.3537 52.5378 58.1738 52.7995L55.9501 56.0338C55.7702 56.2955 55.8365 56.6535 56.0981 56.8334Z" fill="url(#paint18_linear_107_665)"/>
<path d="M40.8527 46.3626L42.74 47.6597C43.0017 47.8395 43.3597 47.7732 43.5396 47.5115L45.7627 44.2768C45.9426 44.0151 45.8762 43.6571 45.6145 43.4772L43.7273 42.1802C43.4655 42.0003 43.1076 42.0666 42.9277 42.3283L40.7046 45.563C40.5247 45.8248 40.591 46.1827 40.8527 46.3626Z" fill="url(#paint19_linear_107_665)"/>
</g>
<defs>
<linearGradient id="paint0_linear_107_665" x1="53.5018" y1="12.1826" x2="-39.4326" y2="-12.181" gradientUnits="userSpaceOnUse">
<stop stop-color="#886BFF"/>
<stop offset="1" stop-color="#0C0B36"/>
</linearGradient>
<linearGradient id="paint1_linear_107_665" x1="58.7628" y1="63.7677" x2="51.2217" y2="78.7708" gradientUnits="userSpaceOnUse">
<stop stop-color="#B3FFFF"/>
<stop offset="1" stop-color="white"/>
</linearGradient>
<linearGradient id="paint2_linear_107_665" x1="50.7518" y1="80.0958" x2="59.4498" y2="83.0467" gradientUnits="userSpaceOnUse">
<stop stop-color="#B3FFF7"/>
<stop offset="1" stop-color="#7A9AFF"/>
</linearGradient>
<linearGradient id="paint3_linear_107_665" x1="55.3574" y1="49.1721" x2="64.6694" y2="27.7689" gradientUnits="userSpaceOnUse">
<stop stop-color="#B3FFFF"/>
<stop offset="1" stop-color="white"/>
</linearGradient>
<linearGradient id="paint4_linear_107_665" x1="36.2871" y1="49.9949" x2="41.91" y2="36.5401" gradientUnits="userSpaceOnUse">
<stop stop-color="#B3FFFF"/>
<stop offset="1" stop-color="white"/>
</linearGradient>
<linearGradient id="paint5_linear_107_665" x1="47.3722" y1="36.3921" x2="38.869" y2="34.8054" gradientUnits="userSpaceOnUse">
<stop stop-color="#B3FFF7"/>
<stop offset="1" stop-color="#7A9AFF"/>
</linearGradient>
<linearGradient id="paint6_linear_107_665" x1="67.0169" y1="30.7487" x2="69.786" y2="34.6771" gradientUnits="userSpaceOnUse">
<stop stop-color="#B3FFFF"/>
<stop offset="1" stop-color="white"/>
</linearGradient>
<linearGradient id="paint7_linear_107_665" x1="70.892" y1="25.2922" x2="65.5212" y2="34.5986" gradientUnits="userSpaceOnUse">
<stop stop-color="#B3FFFF"/>
<stop offset="1" stop-color="white"/>
</linearGradient>
<linearGradient id="paint8_linear_107_665" x1="63.3792" y1="18.0822" x2="59.9378" y2="21.4358" gradientUnits="userSpaceOnUse">
<stop stop-color="#B3FFFF"/>
<stop offset="1" stop-color="white"/>
</linearGradient>
<linearGradient id="paint9_linear_107_665" x1="67.7176" y1="19.144" x2="58.9909" y2="15.8011" gradientUnits="userSpaceOnUse">
<stop stop-color="#B3FFFF"/>
<stop offset="1" stop-color="white"/>
</linearGradient>
<linearGradient id="paint10_linear_107_665" x1="63.8945" y1="52.9347" x2="34.856" y2="51.9561" gradientUnits="userSpaceOnUse">
<stop stop-color="#B3FFFF"/>
<stop offset="1" stop-color="white"/>
</linearGradient>
<linearGradient id="paint11_linear_107_665" x1="42.7881" y1="64.3372" x2="61.9478" y2="39.2912" gradientUnits="userSpaceOnUse">
<stop stop-color="#B3FFF7"/>
<stop offset="1" stop-color="#7A9AFF"/>
</linearGradient>
<linearGradient id="paint12_linear_107_665" x1="29.8703" y1="80.1829" x2="43.6486" y2="61.1446" gradientUnits="userSpaceOnUse">
<stop stop-color="#B3FFFF"/>
<stop offset="1" stop-color="white"/>
</linearGradient>
<linearGradient id="paint13_linear_107_665" x1="28.9861" y1="70.2298" x2="45.6995" y2="65.8102" gradientUnits="userSpaceOnUse">
<stop stop-color="#886BFF"/>
<stop offset="1" stop-color="#0C0B36"/>
</linearGradient>
<linearGradient id="paint14_linear_107_665" x1="46.7629" y1="67.2282" x2="40.9881" y2="65.7142" gradientUnits="userSpaceOnUse">
<stop stop-color="#886BFF"/>
<stop offset="1" stop-color="#0C0B36"/>
</linearGradient>
<linearGradient id="paint15_linear_107_665" x1="56.7401" y1="51.9785" x2="42.9579" y2="51.5165" gradientUnits="userSpaceOnUse">
<stop stop-color="#B3FFFF"/>
<stop offset="1" stop-color="white"/>
</linearGradient>
<linearGradient id="paint16_linear_107_665" x1="56.8869" y1="48.267" x2="47.807" y2="47.961" gradientUnits="userSpaceOnUse">
<stop stop-color="#886BFF"/>
<stop offset="1" stop-color="#0C0B36"/>
</linearGradient>
<linearGradient id="paint17_linear_107_665" x1="53.5888" y1="52.4404" x2="44.9937" y2="52.1523" gradientUnits="userSpaceOnUse">
<stop stop-color="#886BFF"/>
<stop offset="1" stop-color="#0C0B36"/>
</linearGradient>
<linearGradient id="paint18_linear_107_665" x1="61.0701" y1="55.481" x2="55.8831" y2="55.3062" gradientUnits="userSpaceOnUse">
<stop stop-color="#B3FFFF"/>
<stop offset="1" stop-color="white"/>
</linearGradient>
<linearGradient id="paint19_linear_107_665" x1="45.8371" y1="44.9916" x2="40.65" y2="44.8177" gradientUnits="userSpaceOnUse">
<stop stop-color="#B3FFFF"/>
<stop offset="1" stop-color="white"/>
</linearGradient>
</defs>
</svg>
